<?xml version="1.0" standalone="no"?>
<!DOCTYPE svg PUBLIC "-//W3C//DTD SVG 20010904//EN"
 "http://www.w3.org/TR/2001/REC-SVG-20010904/DTD/svg10.dtd">
<svg version="1.0" xmlns="http://www.w3.org/2000/svg"
 width="709.000000pt" height="709.000000pt" viewBox="0 0 709.000000 709.000000"
 preserveAspectRatio="xMidYMid meet">
<metadata>
Created by potrace 1.14, written by Peter Selinger 2001-2017
</metadata>
<g transform="translate(0.000000,709.000000) scale(0.100000,-0.100000)"
fill="#000000" stroke="none">
<path d="M4585 5095 c-146 -44 -236 -155 -243 -303 -7 -125 43 -229 131 -271
50 -24 154 -40 143 -22 -6 8 3 10 32 5 31 -5 50 0 101 26 35 17 60 34 57 37
-3 3 9 15 27 27 70 47 126 223 98 308 -6 18 -11 36 -10 41 0 4 -10 26 -23 48
-42 74 -145 121 -232 105 -19 -4 -36 -2 -38 2 -2 6 -20 4 -43 -3z m-72 -70
c-50 -43 -83 -94 -99 -155 -9 -31 -13 -37 -13 -19 -1 40 46 123 94 168 25 23
48 41 52 41 3 0 -12 -16 -34 -35z m230 8 c-13 -2 -33 -2 -45 0 -13 2 -3 4 22
4 25 0 35 -2 23 -4z m-76 -9 c-3 -3 -12 -4 -19 -1 -8 3 -5 6 6 6 11 1 17 -2
13 -5z m130 0 c-3 -3 -12 -4 -19 -1 -8 3 -5 6 6 6 11 1 17 -2 13 -5z m-168 -8
c-2 -2 -15 -9 -29 -15 -24 -11 -24 -11 -6 3 16 13 49 24 35 12z m239 -26 c23
-17 42 -33 42 -37 0 -3 -8 1 -17 9 -10 9 -34 25 -53 37 -19 11 -30 21 -24 21
6 0 30 -14 52 -30z m-298 -3 c0 -2 -15 -16 -32 -33 l-33 -29 29 33 c28 30 36
37 36 29z m226 -36 c90 -41 126 -139 84 -225 -25 -52 -63 -84 -112 -92 -33 -5
-33 -5 5 10 141 53 157 228 27 294 -70 35 -147 24 -210 -31 l-25 -22 20 24
c26 31 91 61 135 61 19 0 54 -9 76 -19z m-298 -53 c-6 -13 -15 -54 -18 -93
l-7 -70 -2 58 c-1 52 19 127 34 127 3 0 0 -10 -7 -22z m272 -13 c38 -20 63
-68 55 -105 -7 -34 -51 -80 -74 -79 -12 0 -11 2 4 8 73 30 82 132 14 166 -39
20 -68 19 -109 -6 -27 -17 -31 -18 -20 -4 30 36 84 44 130 20z m-210 -31 c-24
-62 -2 -138 53 -186 l22 -19 -22 10 c-35 17 -66 70 -70 120 -4 41 9 101 22
101 2 0 0 -12 -5 -26z m63 -47 c-6 -42 32 -92 80 -103 17 -4 27 -9 20 -11 -7
-2 -28 3 -48 13 -43 20 -71 69 -61 108 9 37 16 32 9 -7z m-226 -19 c-3 -7 -5
-2 -5 12 0 14 2 19 5 13 2 -7 2 -19 0 -25z m10 -60 c-3 -7 -5 -2 -5 12 0 14 2
19 5 13 2 -7 2 -19 0 -25z m226 -148 c6 0 8 -3 4 -6 -7 -8 -88 38 -107 61 -7
9 11 0 40 -20 28 -19 57 -35 63 -35z m66 54 c10 -9 -35 -3 -49 6 -11 8 -7 9
15 4 17 -4 32 -8 34 -10z m-219 -36 c19 -24 26 -37 17 -29 -19 15 -61 71 -54
71 2 0 19 -19 37 -42z m203 -35 c-7 -2 -19 -2 -25 0 -7 3 -2 5 12 5 14 0 19
-2 13 -5z m100 0 c-7 -2 -19 -2 -25 0 -7 3 -2 5 12 5 14 0 19 -2 13 -5z m-188
-51 c-5 -5 -63 26 -69 37 -4 5 12 0 33 -12 22 -12 38 -23 36 -25z"/>
<path d="M1204 4971 c-88 -44 -159 -86 -191 -116 l-52 -46 -84 -257 c-47 -141
-167 -507 -268 -812 -100 -305 -225 -685 -278 -845 l-96 -290 -37 -18 c-21
-10 -74 -26 -118 -35 l-80 -17 0 -122 0 -123 450 0 450 0 0 120 0 121 -37 -1
c-21 -1 -85 9 -143 21 l-106 22 24 71 c13 39 21 81 19 93 -2 12 0 21 6 20 14
-3 118 311 119 358 0 28 2 34 7 21 7 -19 8 -19 13 2 5 18 13 22 47 22 l42 0
-6 73 c-7 74 12 198 35 234 10 16 11 16 5 -2 -23 -68 -37 -178 -31 -239 l8
-66 58 0 59 0 -10 32 c-11 39 -11 135 0 163 5 11 6 -11 3 -51 -2 -42 0 -86 8
-108 l12 -36 138 0 138 0 11 38 10 37 -5 -38 -5 -38 58 1 c118 3 123 2 134
-27 22 -61 21 -59 30 -38 7 15 8 12 3 -11 -4 -24 16 -92 75 -265 45 -128 81
-238 81 -245 0 -15 -67 -30 -172 -40 l-76 -7 0 -118 0 -119 509 0 509 0 0 119
0 118 -60 7 c-81 9 -153 32 -174 54 -16 18 -65 151 -239 647 -44 127 -113 325
-154 440 -40 116 -98 280 -127 365 -30 85 -76 218 -104 295 -27 77 -94 267
-148 422 -55 156 -104 283 -110 283 -6 0 -73 -31 -150 -69z m-23 -883 c15 -45
33 -84 39 -86 5 -2 8 -8 4 -13 -3 -5 7 -45 21 -90 24 -72 31 -81 65 -99 21
-11 41 -24 45 -30 3 -5 -10 0 -30 11 -20 12 -38 20 -40 18 -7 -8 71 -216 98
-262 30 -51 57 -120 57 -146 0 -9 -11 15 -25 53 -25 72 -35 90 -35 63 0 -14
-11 -17 -70 -17 l-69 0 25 -25 c29 -29 64 -100 63 -130 0 -11 -8 4 -18 33 -10
29 -33 69 -52 88 -30 31 -38 34 -90 34 -48 0 -63 -5 -91 -27 l-33 -27 24 27
24 27 -86 0 c-48 0 -87 1 -87 3 0 2 20 63 45 137 49 146 51 155 33 144 -7 -4
-3 4 9 17 11 13 32 61 46 107 l26 83 -22 -7 c-12 -4 -39 -15 -59 -25 -21 -11
-38 -17 -38 -14 0 4 28 19 63 35 l63 29 28 91 c16 50 30 89 33 86 3 -2 18 -42
34 -88z m86 -104 c-3 -3 -12 -4 -19 -1 -8 3 -5 6 6 6 11 1 17 -2 13 -5z m119
-53 c33 -22 73 -54 89 -72 22 -25 17 -22 -20 10 -27 24 -72 56 -100 72 -27 16
-45 29 -39 29 7 0 38 -18 70 -39z m-466 -24 c0 -1 -24 -25 -52 -52 l-53 -50
50 53 c46 48 55 57 55 49z m634 -149 c22 -39 11 -29 -29 27 -17 23 -21 33 -9
23 10 -9 28 -32 38 -50z m-752 15 c-37 -52 -82 -152 -106 -235 -14 -46 -25
-76 -25 -67 -2 62 116 329 145 329 3 0 -3 -12 -14 -27z m133 -55 c-61 -67 -72
-78 -55 -53 17 25 93 105 98 105 3 0 -17 -24 -43 -52z m471 10 l29 -33 -32 29
c-18 17 -33 31 -33 33 0 8 8 1 36 -29z m45 -55 c13 -16 12 -17 -3 -4 -10 7
-18 15 -18 17 0 8 8 3 21 -13z m169 -48 c0 -5 -5 -3 -10 5 -5 8 -10 20 -10 25
0 6 5 3 10 -5 5 -8 10 -19 10 -25z m-124 -26 c14 -28 24 -53 22 -55 -2 -2 -16
21 -31 51 -15 30 -25 55 -22 55 3 0 16 -23 31 -51z m-648 -4 c-12 -24 -23 -43
-26 -41 -4 5 36 86 43 86 3 0 -5 -20 -17 -45z m801 -55 c0 -8 -7 1 -14 20 -18
46 -17 64 0 25 8 -16 14 -37 14 -45z m-838 -31 c-5 -13 -10 -19 -10 -12 -1 15
10 45 15 40 3 -2 0 -15 -5 -28z m846 -11 c-3 -8 -6 -5 -6 6 -1 11 2 17 5 13 3
-3 4 -12 1 -19z m-860 -40 c-3 -8 -6 -5 -6 6 -1 11 2 17 5 13 3 -3 4 -12 1
-19z m870 -15 c-3 -10 -5 -4 -5 12 0 17 2 24 5 18 2 -7 2 -21 0 -30z m-120 5
c-3 -8 -6 -5 -6 6 -1 11 2 17 5 13 3 -3 4 -12 1 -19z m-880 -45 c-3 -10 -5 -2
-5 17 0 19 2 27 5 18 2 -10 2 -26 0 -35z m120 5 c-3 -7 -5 -2 -5 12 0 14 2 19
5 13 2 -7 2 -19 0 -25z m251 -3 c-6 -14 -13 -23 -15 -21 -5 5 15 46 22 46 3 0
-1 -11 -7 -25z m519 -12 c-3 -10 -5 -4 -5 12 0 17 2 24 5 18 2 -7 2 -21 0 -30z
m120 -35 c-2 -13 -4 -3 -4 22 0 25 2 35 4 23 2 -13 2 -33 0 -45z m-900 -45
c-2 -16 -4 -3 -4 27 0 30 2 43 4 28 2 -16 2 -40 0 -55z m-120 -85 c-2 -29 -3
-8 -3 47 0 55 1 79 3 53 2 -26 2 -71 0 -100z m790 0 c-2 -29 -3 -8 -3 47 0 55
1 79 3 53 2 -26 2 -71 0 -100z m120 -1 c-2 -23 -3 -1 -3 48 0 50 1 68 3 42 2
-26 2 -67 0 -90z m120 26 c-2 -16 -4 -5 -4 22 0 28 2 40 4 28 2 -13 2 -35 0
-50z m-350 5 c-2 -13 -4 -5 -4 17 -1 22 1 32 4 23 2 -10 2 -28 0 -40z m460
-15 c-3 -10 -5 -2 -5 17 0 19 2 27 5 18 2 -10 2 -26 0 -35z m-1020 -60 c-2
-16 -4 -3 -4 27 0 30 2 43 4 28 2 -16 2 -40 0 -55z m900 -35 c-2 -13 -4 -3 -4
22 0 25 2 35 4 23 2 -13 2 -33 0 -45z m-120 -15 c-3 -10 -5 -4 -5 12 0 17 2
24 5 18 2 -7 2 -21 0 -30z m-890 -20 c-3 -10 -5 -2 -5 17 0 19 2 27 5 18 2
-10 2 -26 0 -35z m1000 -30 c-3 -10 -5 -4 -5 12 0 17 2 24 5 18 2 -7 2 -21 0
-30z m-990 -15 c-3 -8 -6 -5 -6 6 -1 11 2 17 5 13 3 -3 4 -12 1 -19z m980 -30
c-3 -8 -6 -5 -6 6 -1 11 2 17 5 13 3 -3 4 -12 1 -19z m-970 -10 c-3 -8 -6 -5
-6 6 -1 11 2 17 5 13 3 -3 4 -12 1 -19z m942 -82 c-28 -77 -33 -67 -6 12 12
34 23 58 25 53 1 -4 -7 -34 -19 -65z m-932 42 c-3 -8 -6 -5 -6 6 -1 11 2 17 5
13 3 -3 4 -12 1 -19z m23 -53 c0 -5 -5 -3 -10 5 -5 8 -10 20 -10 25 0 6 5 3
10 -5 5 -8 10 -19 10 -25z"/>
<path d="M3155 4314 c-357 -55 -585 -286 -585 -592 0 -70 19 -149 32 -130 7 9
8 6 4 -12 -8 -38 80 -180 104 -165 5 3 10 -2 10 -13 0 -20 46 -62 132 -120 55
-38 70 -41 40 -9 -40 43 -62 107 -60 182 l1 70 7 -80 c9 -117 57 -192 154
-243 43 -22 64 -27 131 -27 67 0 88 5 130 27 54 29 91 64 124 118 11 19 21 30
21 24 0 -17 -53 -87 -91 -118 -46 -40 -92 -57 -167 -65 l-65 -6 92 -47 c50
-26 116 -64 147 -83 46 -30 58 -34 77 -25 20 10 20 10 5 -3 -16 -13 -14 -17
27 -61 54 -58 69 -101 62 -174 -14 -137 -129 -202 -303 -173 -186 31 -329 171
-349 339 l-7 61 -46 10 c-26 5 -65 12 -87 16 -22 3 -50 8 -63 11 -27 5 -36
-14 -59 -131 -24 -118 -24 -428 -1 -471 33 -61 259 -149 459 -180 98 -15 130
-16 229 -6 224 23 378 87 499 210 128 129 181 263 181 459 0 180 -55 293 -203
421 -66 57 -76 61 -78 35 -1 -10 -4 -5 -8 11 -4 21 -19 35 -58 56 -29 16 -77
42 -107 59 -29 17 -56 31 -60 31 -3 0 -6 -28 -7 -62 0 -35 -4 -72 -8 -83 -4
-11 -6 16 -4 60 2 44 0 85 -4 91 -4 6 -53 34 -108 64 -55 29 -128 73 -163 97
-35 23 -69 43 -76 43 -6 0 -35 -12 -64 -26 -58 -29 -106 -79 -133 -138 -10
-23 -19 -34 -19 -25 0 23 52 100 91 134 19 17 54 39 79 49 25 11 46 20 47 21
2 1 -6 19 -17 40 -24 47 -24 54 -4 105 10 25 29 48 52 62 36 22 36 22 12 30
-14 4 25 6 85 5 139 -3 175 -19 288 -130 45 -44 69 -69 53 -56 l-29 24 31 -55
31 -55 83 -16 83 -15 27 30 c48 54 128 278 128 359 0 60 -56 111 -179 161 -69
28 -202 63 -271 70 -74 9 -243 15 -275 10z m-102 -341 c-7 -2 -21 -2 -30 0
-10 3 -4 5 12 5 17 0 24 -2 18 -5z m-56 -9 c-3 -3 -12 -4 -19 -1 -8 3 -5 6 6
6 11 1 17 -2 13 -5z m-47 -14 c-8 -5 -19 -10 -25 -10 -5 0 -3 5 5 10 8 5 20
10 25 10 6 0 3 -5 -5 -10z m-41 -14 c-10 -9 -69 -36 -69 -32 0 7 52 35 64 36
5 0 7 -2 5 -4z m-121 -76 c-26 -22 -63 -59 -83 -83 -25 -28 -30 -32 -16 -11
21 33 127 134 139 134 4 0 -14 -18 -40 -40z m142 -51 c-92 -50 -147 -112 -186
-208 -13 -31 -24 -49 -24 -41 0 32 51 122 97 171 44 47 134 109 158 109 6 0
-15 -14 -45 -31z m650 -70 c15 -28 5 -23 -15 7 -9 15 -12 23 -6 20 6 -4 16
-16 21 -27z m-932 -54 c-12 -24 -23 -43 -26 -41 -4 5 36 86 43 86 3 0 -5 -20
-17 -45z m548 -74 c23 -10 54 -36 70 -57 25 -32 29 -46 29 -100 0 -39 -5 -68
-13 -76 -11 -11 -11 -8 -3 15 30 78 -5 167 -79 205 -24 12 -58 22 -75 22 -40
0 -114 -38 -137 -70 -42 -57 -35 -149 15 -208 30 -35 30 -36 3 -12 -93 82 -68
227 49 281 51 24 89 23 141 0z m-479 -108 c-3 -10 -5 -4 -5 12 0 17 2 24 5 18
2 -7 2 -21 0 -30z m820 -115 c-2 -13 -4 -5 -4 17 -1 22 1 32 4 23 2 -10 2 -28
0 -40z m-288 -54 c-43 -47 -138 -70 -178 -45 -10 6 0 8 27 4 48 -6 119 16 147
47 10 11 20 20 23 20 3 0 -5 -12 -19 -26z m253 -57 c-18 -36 -53 -83 -84 -112
l-52 -50 52 57 c49 53 101 143 103 178 0 11 2 12 6 2 3 -7 -9 -41 -25 -75z
m128 -9 c-11 -30 -27 -63 -35 -74 -11 -12 -9 -5 3 21 11 22 26 60 33 84 7 24
15 39 16 34 2 -6 -5 -35 -17 -65z m-69 -125 c-10 -16 -41 -48 -67 -73 -38 -36
-34 -30 17 27 68 77 82 90 50 46z m-201 -28 c0 -2 -10 -9 -22 -15 -22 -11 -22
-10 -4 4 21 17 26 19 26 11z"/>
<path d="M4670 4304 c-102 -44 -342 -111 -483 -135 l-78 -13 3 -111 3 -110 69
-7 c94 -9 162 -27 178 -45 10 -13 14 -148 16 -650 l3 -634 -35 -14 c-31 -13
-140 -44 -208 -59 l-28 -6 0 -115 0 -115 515 0 516 0 -3 116 -3 117 -95 21
c-52 12 -112 30 -132 40 l-38 18 0 859 0 859 -82 0 c-51 -1 -96 -7 -118 -16z"/>
<path d="M6128 4305 c-350 -62 -678 -275 -800 -520 -20 -40 -23 -56 -16 -77 5
-16 14 -28 19 -28 4 0 6 -6 3 -13 -2 -7 2 -29 10 -49 16 -38 55 -56 95 -43 11
3 43 8 73 10 29 2 85 14 123 26 61 19 67 23 45 30 -20 5 -15 7 23 8 53 1 98
20 140 59 31 29 35 58 10 65 -14 4 -14 5 -3 6 10 1 21 18 28 44 15 53 37 79
93 108 38 21 58 24 149 24 95 0 108 -2 139 -24 56 -40 72 -93 79 -256 l5 -143
-32 -7 c-36 -8 -36 -7 -15 -43 14 -23 13 -22 -10 5 -15 18 -33 30 -43 27 -10
-2 -44 -8 -76 -14 -31 -6 -55 -15 -52 -20 3 -4 -4 -6 -14 -3 -10 3 -53 -3 -95
-12 l-77 -17 50 -48 c55 -53 97 -127 107 -190 4 -24 11 -39 18 -37 6 3 37 10
69 17 46 11 57 17 58 34 1 18 2 18 6 3 4 -16 11 -18 54 -12 l49 7 1 -154 1
-153 18 55 c11 30 19 48 19 39 1 -23 -42 -141 -62 -172 -10 -15 -22 -27 -27
-27 -5 0 -43 -22 -85 -49 -106 -69 -172 -93 -275 -98 l-85 -4 -27 39 c-15 21
-30 50 -33 64 -6 24 -11 26 -83 30 -94 5 -170 37 -237 99 -50 46 -105 131
-105 164 l-1 20 -15 -20 c-30 -37 -66 -129 -62 -157 3 -15 1 -25 -3 -23 -11 8
-19 -36 -19 -114 0 -63 3 -79 23 -100 12 -14 14 -19 4 -12 -51 40 -21 -67 60
-214 23 -40 123 -126 175 -150 221 -101 476 -54 743 137 72 52 81 56 93 41 6
-9 12 -25 12 -35 0 -33 47 -113 89 -151 23 -21 55 -39 78 -43 80 -15 251 52
452 177 l103 64 -4 122 c-1 67 -8 127 -13 132 -8 8 -37 0 -98 -25 -48 -19
-100 -34 -115 -32 l-27 3 -5 625 c-5 604 -6 627 -27 687 -53 157 -159 258
-323 307 -74 23 -254 29 -352 11z m-350 -522 c-32 -2 -84 -2 -115 0 -32 2 -6
3 57 3 63 0 89 -1 58 -3z m-185 -10 c-7 -2 -19 -2 -25 0 -7 3 -2 5 12 5 14 0
19 -2 13 -5z m-46 -9 c-3 -3 -12 -4 -19 -1 -8 3 -5 6 6 6 11 1 17 -2 13 -5z
m-77 -24 c-8 -5 -19 -10 -25 -10 -5 0 -3 5 5 10 8 5 20 10 25 10 6 0 3 -5 -5
-10z m-80 -35 c0 -2 -10 -9 -22 -15 -22 -11 -22 -10 -4 4 21 17 26 19 26 11z
m243 -72 c-7 -2 -19 -2 -25 0 -7 3 -2 5 12 5 14 0 19 -2 13 -5z m-46 -9 c-3
-3 -12 -4 -19 -1 -8 3 -5 6 6 6 11 1 17 -2 13 -5z m-47 -14 c-8 -5 -19 -10
-25 -10 -5 0 -3 5 5 10 8 5 20 10 25 10 6 0 3 -5 -5 -10z m621 -192 c15 -28 5
-21 -21 15 -15 20 -17 27 -6 18 9 -8 22 -23 27 -33z m34 -59 c9 -17 15 -33 13
-35 -3 -2 -12 12 -21 31 -21 43 -13 47 8 4z m165 -4 c0 -5 -5 -3 -10 5 -5 8
-10 20 -10 25 0 6 5 3 10 -5 5 -8 10 -19 10 -25z m18 -70 c0 -16 -2 -15 -8 5
-11 34 -11 60 0 35 5 -11 8 -29 8 -40z m-151 -27 c-3 -8 -6 -5 -6 6 -1 11 2
17 5 13 3 -3 4 -12 1 -19z m160 -35 c-3 -10 -5 -4 -5 12 0 17 2 24 5 18 2 -7
2 -21 0 -30z m10 -100 c-2 -16 -4 -5 -4 22 0 28 2 40 4 28 2 -13 2 -35 0 -50z
m-10 -80 c-3 -10 -5 -2 -5 17 0 19 2 27 5 18 2 -10 2 -26 0 -35z m150 -15 c-3
-8 -6 -5 -6 6 -1 11 2 17 5 13 3 -3 4 -12 1 -19z m-1067 -313 c36 -19 61 -35
56 -35 -27 0 -131 70 -182 123 l-59 62 60 -57 c33 -32 89 -73 125 -93z m1001
102 c-10 -9 -11 -8 -5 6 3 10 9 15 12 12 3 -3 0 -11 -7 -18z m-200 -44 c-10
-16 -45 -53 -77 -83 -51 -48 -48 -45 17 27 79 87 92 100 60 56z m-674 -109
c-3 -3 -12 -4 -19 -1 -8 3 -5 6 6 6 11 1 17 -2 13 -5z m61 -11 c-10 -2 -26 -2
-35 0 -10 3 -2 5 17 5 19 0 27 -2 18 -5z m160 0 c-10 -2 -26 -2 -35 0 -10 3
-2 5 17 5 19 0 27 -2 18 -5z m-80 -10 c-10 -2 -26 -2 -35 0 -10 3 -2 5 17 5
19 0 27 -2 18 -5z m-378 -40 c0 -7 -39 17 -46 28 -3 6 5 3 20 -6 14 -10 26
-19 26 -22z m765 27 c-3 -5 -16 -15 -28 -21 -19 -9 -19 -8 3 10 28 23 34 26
25 11z m-640 -88 c-4 -5 -115 45 -115 52 0 2 27 -8 60 -22 32 -14 57 -28 55
-30z m585 53 c0 -6 -56 -35 -67 -35 -4 1 8 9 27 20 39 22 40 22 40 15z m-513
-71 c-3 -3 -12 -4 -19 -1 -8 3 -5 6 6 6 11 1 17 -2 13 -5z m350 0 c-3 -3 -12
-4 -19 -1 -8 3 -5 6 6 6 11 1 17 -2 13 -5z m-294 -11 c-7 -2 -21 -2 -30 0 -10
3 -4 5 12 5 17 0 24 -2 18 -5z m250 0 c-7 -2 -19 -2 -25 0 -7 3 -2 5 12 5 14
0 19 -2 13 -5z m-95 -10 c-27 -2 -69 -2 -95 0 -27 2 -5 3 47 3 52 0 74 -1 48
-3z m338 -58 c-11 -8 -25 -15 -30 -15 -6 1 0 7 14 15 32 19 40 18 16 0z m-279
-81 c-3 -3 -12 -4 -19 -1 -8 3 -5 6 6 6 11 1 17 -2 13 -5z m-80 -10 c-3 -3
-12 -4 -19 -1 -8 3 -5 6 6 6 11 1 17 -2 13 -5z"/>
<path d="M5815 3411 c-103 -37 -135 -49 -135 -55 0 -2 9 -2 20 1 22 6 117 -15
125 -27 3 -4 -18 -1 -47 7 -163 48 -316 -112 -252 -265 19 -46 57 -87 95 -103
17 -6 28 -14 25 -16 -7 -8 -60 24 -88 54 -58 61 -73 145 -38 221 l19 43 -27
-20 c-33 -23 -112 -106 -136 -142 -16 -25 -16 -29 4 -82 48 -127 175 -217 319
-225 l78 -4 5 58 c3 33 8 66 12 75 5 12 0 15 -31 12 l-38 -2 40 10 c32 8 47
20 74 60 19 27 47 59 63 70 23 17 28 28 28 60 0 51 -23 105 -63 149 l-32 35
34 -30 c41 -37 70 -98 71 -146 l0 -37 58 24 c31 13 63 24 70 24 18 0 15 42 -9
106 -23 60 -121 174 -149 174 -8 0 -51 -13 -95 -29z m-112 -468 c-7 -2 -21 -2
-30 0 -10 3 -4 5 12 5 17 0 24 -2 18 -5z"/>
</g>
</svg>
